<?xml version="1.0" encoding="UTF-8"?>
<svg width="128" height="128" viewBox="0 0 128 128" xmlns="http://www.w3.org/2000/svg">
  <!-- 渐变背景 -->
  <defs>
    <linearGradient id="bgGradient" x1="0%" y1="0%" x2="100%" y2="100%">
      <stop offset="0%" stop-color="#2979FF" />
      <stop offset="100%" stop-color="#1565C0" />
    </linearGradient>
  </defs>

  <!-- 背景圆形 -->
  <circle cx="64" cy="64" r="60" fill="url(#bgGradient)" />
  
  <!-- 虎鲸图形 - 简化设计 -->
  <g transform="translate(32, 32) scale(0.8)">
    <!-- 虎鲸主体 -->
    <path d="M80 40 C80 17.91 62.09 0 40 0 C17.91 0 0 17.91 0 40 C0 62.09 17.91 80 40 80 C62.09 80 80 62.09 80 40 Z" 
          fill="black" />
    
    <!-- 白色斑纹 -->
    <path d="M20 12 C20 12 24 28 40 28 C56 28 60 12 60 12 L62 24 C62 24 58 40 40 40 C22 40 18 24 18 24 Z" 
          fill="white" />
    
    <!-- 背鳍 -->
    <path d="M40 0 L40 16 C44 16 48 18 50 20 L40 0 Z" 
          fill="black" />
    
    <!-- 眼睛 -->
    <circle cx="30" cy="24" r="3" fill="black" />
    
    <!-- 水花效果 - 表示AI和数据 -->
    <path d="M12 60 C12 60 18 50 24 55 C30 60 30 48 36 50 C42 52 48 64 54 58 C60 52 68 60 68 60" 
          stroke="white" stroke-width="2" fill="none" stroke-linecap="round" />
  </g>
  
  <!-- 数据导出指示器 - 简化版 -->
  <g transform="translate(88, 88)">
    <circle cx="0" cy="0" r="14" fill="#1565C0" />
    <path d="M-6 -4 L0 4 L6 -4" stroke="white" stroke-width="2" stroke-linecap="round" fill="none" />
    <path d="M0 -6 L0 4" stroke="white" stroke-width="2" stroke-linecap="round" />
    <path d="M-6 8 L6 8" stroke="white" stroke-width="2" stroke-linecap="round" />
  </g>
</svg> 